<svg width="1000" height="1000" viewBox="0 0 1000 1000" fill="none" xmlns="http://www.w3.org/2000/svg">
<rect width="1000" height="1000" fill="none"/>
<path d="M577.276 357.031C583.89 373.074 584.468 411.443 583.774 441.017C583.341 459.499 564.429 470.587 548.634 461.562C522.632 446.704 489.375 425.631 479.514 410.063C465.178 382.486 475.441 348.259 502.437 333.615C529.433 318.971 562.94 329.454 577.276 357.031Z" fill="#00C978"/>
<path d="M577.276 643.969C583.89 627.926 584.468 589.557 583.774 559.983C583.341 541.501 564.429 530.413 548.634 539.438C522.632 554.296 489.375 575.369 479.514 590.937C465.178 618.514 475.441 652.741 502.437 667.385C529.433 682.029 562.94 671.546 577.276 643.969Z" fill="#19A873"/>
<path d="M472.283 445.802C489.257 447.339 522.722 464.775 547.982 479.241C563.768 488.283 564.511 510.544 549.31 520.579C524.287 537.098 490.492 557.258 472.409 558.874C441.842 558.91 417.035 533.626 417 502.403C416.965 471.179 441.716 445.838 472.283 445.802Z" fill="#19A873"/>
</svg>
