<svg width="1000" height="1000" viewBox="0 0 1000 1000" fill="none" xmlns="http://www.w3.org/2000/svg">
<rect width="1000" height="1000" fill="white"/>
<path d="M315.639 428.972C318.926 436.97 319.213 456.1 318.868 470.844C318.653 480.059 309.256 485.587 301.408 481.087C288.487 473.679 271.962 463.173 267.062 455.412C259.939 441.663 265.039 424.599 278.453 417.298C291.867 409.997 308.516 415.224 315.639 428.972Z" fill="#00C978"/>
<path d="M315.639 572.028C318.926 564.03 319.213 544.9 318.868 530.156C318.653 520.941 309.256 515.413 301.408 519.913C288.487 527.321 271.962 537.827 267.062 545.588C259.939 559.337 265.039 576.401 278.453 583.702C291.867 591.003 308.516 585.776 315.639 572.028Z" fill="#19A873"/>
<path d="M263.469 473.23C271.904 473.996 288.532 482.689 301.083 489.901C308.928 494.409 309.296 505.508 301.743 510.51C289.31 518.746 272.517 528.797 263.532 529.603C248.344 529.621 236.017 517.016 236 501.449C235.983 485.882 248.281 473.248 263.469 473.23Z" fill="#19A873"/>
<path d="M445.096 483.18H420.162C419.83 480.61 419.148 478.291 418.118 476.222C417.087 474.153 415.724 472.384 414.029 470.916C412.333 469.447 410.322 468.329 407.995 467.562C405.701 466.761 403.157 466.361 400.365 466.361C395.411 466.361 391.139 467.579 387.549 470.015C383.991 472.451 381.249 475.972 379.321 480.577C377.426 485.182 376.478 490.755 376.478 497.296C376.478 504.104 377.442 509.811 379.37 514.416C381.332 518.988 384.075 522.442 387.599 524.778C391.156 527.081 395.361 528.232 400.215 528.232C402.941 528.232 405.418 527.882 407.646 527.181C409.906 526.48 411.884 525.462 413.58 524.127C415.309 522.759 416.722 521.107 417.819 519.172C418.949 517.203 419.73 514.983 420.162 512.514L445.096 512.664C444.664 517.203 443.351 521.674 441.157 526.08C438.996 530.485 436.02 534.506 432.231 538.144C428.441 541.748 423.819 544.618 418.367 546.753C412.948 548.889 406.731 549.957 399.717 549.957C390.474 549.957 382.196 547.922 374.882 543.85C367.602 539.745 361.85 533.772 357.628 525.929C353.406 518.087 351.295 508.543 351.295 497.296C351.295 486.017 353.439 476.456 357.728 468.613C362.016 460.771 367.818 454.814 375.132 450.742C382.446 446.671 390.641 444.635 399.717 444.635C405.9 444.635 411.618 445.503 416.871 447.238C422.124 448.94 426.745 451.443 430.734 454.747C434.724 458.018 437.965 462.039 440.459 466.811C442.952 471.583 444.498 477.04 445.096 483.18Z" fill="#00C978"/>
<path d="M476.114 549.857C471.227 549.857 466.889 549.039 463.099 547.404C459.342 545.736 456.367 543.233 454.172 539.896C452.012 536.525 450.931 532.303 450.931 527.231C450.931 522.959 451.679 519.355 453.175 516.418C454.671 513.482 456.732 511.096 459.359 509.26C461.985 507.425 465.01 506.04 468.435 505.105C471.859 504.138 475.516 503.487 479.406 503.153C483.761 502.753 487.268 502.335 489.928 501.902C492.587 501.434 494.516 500.784 495.713 499.949C496.943 499.082 497.558 497.864 497.558 496.295V496.045C497.558 493.475 496.677 491.49 494.915 490.088C493.153 488.686 490.776 487.986 487.784 487.986C484.559 487.986 481.966 488.686 480.004 490.088C478.043 491.49 476.796 493.425 476.264 495.895L453.773 495.094C454.438 490.422 456.151 486.25 458.91 482.579C461.703 478.875 465.526 475.972 470.38 473.869C475.267 471.733 481.134 470.666 487.983 470.666C492.87 470.666 497.375 471.25 501.497 472.418C505.62 473.552 509.21 475.221 512.269 477.423C515.327 479.592 517.688 482.262 519.35 485.433C521.046 488.603 521.893 492.224 521.893 496.295V548.556H498.954V537.843H498.356C496.992 540.446 495.247 542.649 493.119 544.451C491.025 546.253 488.548 547.604 485.689 548.506C482.863 549.407 479.672 549.857 476.114 549.857ZM483.644 533.839C486.271 533.839 488.631 533.305 490.726 532.237C492.853 531.169 494.549 529.7 495.812 527.832C497.076 525.929 497.707 523.727 497.707 521.224V513.916C497.009 514.283 496.161 514.616 495.164 514.917C494.2 515.217 493.136 515.501 491.972 515.768C490.809 516.035 489.612 516.268 488.382 516.468C487.152 516.669 485.972 516.852 484.841 517.019C482.547 517.386 480.586 517.954 478.957 518.721C477.361 519.489 476.131 520.49 475.267 521.725C474.436 522.926 474.02 524.361 474.02 526.03C474.02 528.566 474.918 530.501 476.713 531.836C478.541 533.171 480.852 533.839 483.644 533.839Z" fill="#00C978"/>
<path d="M555.504 504.705V548.556H531.119V471.667H554.307V485.783H555.155C556.851 481.078 559.743 477.39 563.832 474.72C567.921 472.017 572.792 470.666 578.444 470.666C583.829 470.666 588.5 471.884 592.457 474.32C596.446 476.723 599.538 480.093 601.732 484.431C603.959 488.736 605.057 493.776 605.023 499.549V548.556H580.638V504.354C580.671 500.083 579.591 496.746 577.396 494.343C575.235 491.94 572.227 490.739 568.37 490.739C565.81 490.739 563.55 491.306 561.588 492.441C559.66 493.542 558.164 495.127 557.1 497.196C556.069 499.265 555.538 501.768 555.504 504.705Z" fill="#00C978"/>
<path d="M614.099 548.556V471.667H638.485V548.556H614.099ZM626.317 462.706C622.893 462.706 619.95 461.572 617.49 459.302C615.03 457 613.8 454.23 613.8 450.993C613.8 447.789 615.03 445.053 617.49 442.783C619.95 440.481 622.893 439.329 626.317 439.329C629.774 439.329 632.717 440.481 635.144 442.783C637.604 445.053 638.834 447.789 638.834 450.993C638.834 454.23 637.604 457 635.144 459.302C632.717 461.572 629.774 462.706 626.317 462.706Z" fill="#00C978"/>
<path d="M695.933 471.667V489.688H646.663V471.667H695.933ZM656.936 548.556V467.762C656.936 461.822 658.05 456.9 660.277 452.995C662.505 449.057 665.596 446.12 669.553 444.185C673.509 442.216 678.08 441.231 683.266 441.231C686.657 441.231 689.849 441.498 692.841 442.032C695.866 442.533 698.11 442.984 699.573 443.384L695.683 461.305C694.786 461.004 693.689 460.754 692.392 460.554C691.129 460.354 689.932 460.253 688.802 460.253C685.943 460.253 683.981 460.888 682.917 462.156C681.853 463.424 681.321 465.159 681.321 467.362V548.556H656.936Z" fill="#00C978"/>
<path d="M705.607 577.389C702.682 577.389 699.922 577.155 697.329 576.688C694.736 576.254 692.509 575.67 690.647 574.936L696.033 557.166C698.426 557.966 700.587 558.434 702.515 558.567C704.477 558.701 706.156 558.384 707.552 557.616C708.982 556.882 710.079 555.564 710.843 553.661L711.791 551.359L684.563 471.667H710.095L724.208 526.53H725.006L739.318 471.667H765L736.126 555.914C734.73 560.119 732.752 563.823 730.192 567.027C727.665 570.264 724.391 572.8 720.368 574.636C716.379 576.471 711.458 577.389 705.607 577.389Z" fill="#00C978"/>
</svg>
